<?xml version="1.0" encoding="UTF-8" standalone="no"?>
<svg width="584px" height="403px" viewBox="0 0 584 403" version="1.1" xmlns="http://www.w3.org/2000/svg" xmlns:xlink="http://www.w3.org/1999/xlink">
    <!-- Generator: Sketch 3.8.3 (29802) - http://www.bohemiancoding.com/sketch -->
    <title>Group 3</title>
    <desc>Created with Sketch.</desc>
    <defs></defs>
    <g id="Page-1" stroke="none" stroke-width="1" fill="none" fill-rule="evenodd">
        <g id="Group-3" transform="translate(-4.000000, -2.000000)">
            <ellipse id="Oval-5" fill="#5CBAFF" opacity="0.262593284" cx="174" cy="101" rx="18" ry="18"></ellipse>
            <text id="🤖" font-family="AppleColorEmoji, Apple Color Emoji" font-size="16" font-weight="normal" fill="#4A4A4A">
                <tspan x="134" y="107">🤖</tspan>
            </text>
            <ellipse id="Oval-5" fill="#5CBAFF" opacity="0.262593284" cx="174" cy="58" rx="18" ry="18"></ellipse>
            <text id="👻" font-family="AppleColorEmoji, Apple Color Emoji" font-size="16" font-weight="normal" fill="#4A4A4A">
                <tspan x="134" y="64">👻</tspan>
            </text>
            <text id="🤖" font-family="AppleColorEmoji, Apple Color Emoji" font-size="16" font-weight="normal" fill="#4A4A4A">
                <tspan x="247" y="107">🤖</tspan>
            </text>
            <ellipse id="Oval-5" fill="#5CBAFF" opacity="0.262593284" cx="277.756757" cy="67.2432432" rx="8.75675676" ry="8.75675676"></ellipse>
            <ellipse id="Oval-5" fill="#5CBAFF" opacity="0.262593284" cx="277.756757" cy="48.7567568" rx="8.75675676" ry="8.75675676"></ellipse>
            <ellipse id="Oval-5" fill="#5CBAFF" opacity="0.262593284" cx="296.243243" cy="67.2432432" rx="8.75675676" ry="8.75675676"></ellipse>
            <ellipse id="Oval-5" fill="#5CBAFF" opacity="0.262593284" cx="296.243243" cy="48.7567568" rx="8.75675676" ry="8.75675676"></ellipse>
            <ellipse id="Oval-5" fill="#5CBAFF" opacity="0.262593284" cx="314.756757" cy="67.2432432" rx="8.75675676" ry="8.75675676"></ellipse>
            <ellipse id="Oval-5" fill="#5CBAFF" opacity="0.262593284" cx="314.756757" cy="48.7567568" rx="8.75675676" ry="8.75675676"></ellipse>
            <ellipse id="Oval-5" fill="#5CBAFF" opacity="0.262593284" cx="277.756757" cy="110.756757" rx="8.75675676" ry="8.75675676"></ellipse>
            <ellipse id="Oval-5" fill="#5CBAFF" opacity="0.262593284" cx="277.756757" cy="91.7567568" rx="8.75675676" ry="8.75675676"></ellipse>
            <ellipse id="Oval-5" fill="#5CBAFF" opacity="0.262593284" cx="295.756757" cy="110.756757" rx="8.75675676" ry="8.75675676"></ellipse>
            <ellipse id="Oval-5" fill="#5CBAFF" opacity="0.262593284" cx="295.756757" cy="91.7567568" rx="8.75675676" ry="8.75675676"></ellipse>
            <ellipse id="Oval-5" fill="#FF5D9D" opacity="0.262593284" cx="277.756757" cy="162.243243" rx="8.75675676" ry="8.75675676"></ellipse>
            <ellipse id="Oval-5" fill="#FF5D9D" opacity="0.262593284" cx="277.756757" cy="143.756757" rx="8.75675676" ry="8.75675676"></ellipse>
            <ellipse id="Oval-5" fill="#FF5D9D" opacity="0.262593284" cx="296.243243" cy="162.243243" rx="8.75675676" ry="8.75675676"></ellipse>
            <ellipse id="Oval-5" fill="#FF5D9D" opacity="0.262593284" cx="296.243243" cy="143.756757" rx="8.75675676" ry="8.75675676"></ellipse>
            <ellipse id="Oval-5" fill="#FF5D9D" opacity="0.262593284" cx="314.756757" cy="162.243243" rx="8.75675676" ry="8.75675676"></ellipse>
            <ellipse id="Oval-5" fill="#FF5D9D" opacity="0.262593284" cx="314.756757" cy="143.756757" rx="8.75675676" ry="8.75675676"></ellipse>
            <ellipse id="Oval-5" fill="#FF5D9D" opacity="0.262593284" cx="277.756757" cy="205.756757" rx="8.75675676" ry="8.75675676"></ellipse>
            <ellipse id="Oval-5" fill="#FF5D9D" opacity="0.262593284" cx="277.756757" cy="186.756757" rx="8.75675676" ry="8.75675676"></ellipse>
            <ellipse id="Oval-5" fill="#FF5D9D" opacity="0.262593284" cx="295.756757" cy="205.756757" rx="8.75675676" ry="8.75675676"></ellipse>
            <ellipse id="Oval-5" fill="#FF5D9D" opacity="0.262593284" cx="295.756757" cy="186.756757" rx="8.75675676" ry="8.75675676"></ellipse>
            <ellipse id="Oval-5" fill="#5CFFB4" opacity="0.262593284" cx="277.756757" cy="257.243243" rx="8.75675676" ry="8.75675676"></ellipse>
            <ellipse id="Oval-5" fill="#5CFFB4" opacity="0.262593284" cx="277.756757" cy="238.756757" rx="8.75675676" ry="8.75675676"></ellipse>
            <ellipse id="Oval-5" fill="#5CFFB4" opacity="0.262593284" cx="296.243243" cy="257.243243" rx="8.75675676" ry="8.75675676"></ellipse>
            <ellipse id="Oval-5" fill="#5CFFB4" opacity="0.262593284" cx="296.243243" cy="238.756757" rx="8.75675676" ry="8.75675676"></ellipse>
            <ellipse id="Oval-5" fill="#5CFFB4" opacity="0.262593284" cx="314.756757" cy="257.243243" rx="8.75675676" ry="8.75675676"></ellipse>
            <ellipse id="Oval-5" fill="#5CFFB4" opacity="0.262593284" cx="314.756757" cy="238.756757" rx="8.75675676" ry="8.75675676"></ellipse>
            <ellipse id="Oval-5" fill="#5CFFB4" opacity="0.262593284" cx="277.756757" cy="300.756757" rx="8.75675676" ry="8.75675676"></ellipse>
            <ellipse id="Oval-5" fill="#5CFFB4" opacity="0.262593284" cx="277.756757" cy="281.756757" rx="8.75675676" ry="8.75675676"></ellipse>
            <ellipse id="Oval-5" fill="#5CFFB4" opacity="0.262593284" cx="295.756757" cy="300.756757" rx="8.75675676" ry="8.75675676"></ellipse>
            <ellipse id="Oval-5" fill="#5CFFB4" opacity="0.262593284" cx="295.756757" cy="281.756757" rx="8.75675676" ry="8.75675676"></ellipse>
            <ellipse id="Oval-5" fill="#B45DFF" opacity="0.262593284" cx="277.756757" cy="352.243243" rx="8.75675676" ry="8.75675676"></ellipse>
            <ellipse id="Oval-5" fill="#B45DFF" opacity="0.262593284" cx="277.756757" cy="333.756757" rx="8.75675676" ry="8.75675676"></ellipse>
            <ellipse id="Oval-5" fill="#B45DFF" opacity="0.262593284" cx="296.243243" cy="352.243243" rx="8.75675676" ry="8.75675676"></ellipse>
            <ellipse id="Oval-5" fill="#B45DFF" opacity="0.262593284" cx="296.243243" cy="333.756757" rx="8.75675676" ry="8.75675676"></ellipse>
            <ellipse id="Oval-5" fill="#B45DFF" opacity="0.262593284" cx="314.756757" cy="352.243243" rx="8.75675676" ry="8.75675676"></ellipse>
            <ellipse id="Oval-5" fill="#B45DFF" opacity="0.262593284" cx="314.756757" cy="333.756757" rx="8.75675676" ry="8.75675676"></ellipse>
            <ellipse id="Oval-5" fill="#B45DFF" opacity="0.262593284" cx="277.756757" cy="395.756757" rx="8.75675676" ry="8.75675676"></ellipse>
            <ellipse id="Oval-5" fill="#B45DFF" opacity="0.262593284" cx="277.756757" cy="376.756757" rx="8.75675676" ry="8.75675676"></ellipse>
            <ellipse id="Oval-5" fill="#B45DFF" opacity="0.262593284" cx="295.756757" cy="395.756757" rx="8.75675676" ry="8.75675676"></ellipse>
            <ellipse id="Oval-5" fill="#B45DFF" opacity="0.262593284" cx="295.756757" cy="376.756757" rx="8.75675676" ry="8.75675676"></ellipse>
            <text id="👻" font-family="AppleColorEmoji, Apple Color Emoji" font-size="16" font-weight="normal" fill="#4A4A4A">
                <tspan x="247" y="64">👻</tspan>
            </text>
            <text id="🤖" font-family="AppleColorEmoji, Apple Color Emoji" font-size="16" font-weight="normal" fill="#4A4A4A">
                <tspan x="360" y="107">🤖</tspan>
            </text>
            <ellipse id="Oval-5" fill="#5CBAFF" opacity="0.262593284" cx="388" cy="70" rx="6" ry="6"></ellipse>
            <ellipse id="Oval-5" fill="#5CBAFF" opacity="0.262593284" cx="394" cy="52" rx="12" ry="12"></ellipse>
            <ellipse id="Oval-5" fill="#5CBAFF" opacity="0.262593284" cx="411.5" cy="66.5" rx="9.5" ry="9.5"></ellipse>
            <ellipse id="Oval-5" fill="#5CBAFF" opacity="0.262593284" cx="414" cy="48" rx="8" ry="8"></ellipse>
            <ellipse id="Oval-5" fill="#5CBAFF" opacity="0.262593284" cx="435.5" cy="61.5" rx="14.5" ry="14.5"></ellipse>
            <ellipse id="Oval-5" fill="#5CBAFF" opacity="0.262593284" cx="427" cy="44" rx="4" ry="4"></ellipse>
            <ellipse id="Oval-5" fill="#5CBAFF" opacity="0.262593284" cx="396.256757" cy="105.256757" rx="14.2567568" ry="14.2567568"></ellipse>
            <ellipse id="Oval-5" fill="#5CBAFF" opacity="0.262593284" cx="387" cy="88" rx="5" ry="5"></ellipse>
            <ellipse id="Oval-5" fill="#5CBAFF" opacity="0.262593284" cx="421.256757" cy="109.256757" rx="10.2567568" ry="10.2567568"></ellipse>
            <ellipse id="Oval-5" fill="#5CBAFF" opacity="0.262593284" cx="415" cy="91" rx="8" ry="8"></ellipse>
            <ellipse id="Oval-5" fill="#FF5D9D" opacity="0.262593284" cx="388" cy="165" rx="6" ry="6"></ellipse>
            <ellipse id="Oval-5" fill="#FF5D9D" opacity="0.262593284" cx="394" cy="147" rx="12" ry="12"></ellipse>
            <ellipse id="Oval-5" fill="#FF5D9D" opacity="0.262593284" cx="411.5" cy="161.5" rx="9.5" ry="9.5"></ellipse>
            <ellipse id="Oval-5" fill="#FF5D9D" opacity="0.262593284" cx="414" cy="143" rx="8" ry="8"></ellipse>
            <ellipse id="Oval-5" fill="#FF5D9D" opacity="0.262593284" cx="435.5" cy="156.5" rx="14.5" ry="14.5"></ellipse>
            <ellipse id="Oval-5" fill="#FF5D9D" opacity="0.262593284" cx="427" cy="139" rx="4" ry="4"></ellipse>
            <ellipse id="Oval-5" fill="#FF5D9D" opacity="0.262593284" cx="396.256757" cy="200.256757" rx="14.2567568" ry="14.2567568"></ellipse>
            <ellipse id="Oval-5" fill="#FF5D9D" opacity="0.262593284" cx="387" cy="183" rx="5" ry="5"></ellipse>
            <ellipse id="Oval-5" fill="#FF5D9D" opacity="0.262593284" cx="421.256757" cy="204.256757" rx="10.2567568" ry="10.2567568"></ellipse>
            <ellipse id="Oval-5" fill="#FF5D9D" opacity="0.262593284" cx="415" cy="186" rx="8" ry="8"></ellipse>
            <ellipse id="Oval-5" fill="#5CFFB4" opacity="0.262593284" cx="388" cy="260" rx="6" ry="6"></ellipse>
            <ellipse id="Oval-5" fill="#5CFFB4" opacity="0.262593284" cx="394" cy="242" rx="12" ry="12"></ellipse>
            <ellipse id="Oval-5" fill="#5CFFB4" opacity="0.262593284" cx="411.5" cy="256.5" rx="9.5" ry="9.5"></ellipse>
            <ellipse id="Oval-5" fill="#5CFFB4" opacity="0.262593284" cx="414" cy="238" rx="8" ry="8"></ellipse>
            <ellipse id="Oval-5" fill="#5CFFB4" opacity="0.262593284" cx="435.5" cy="251.5" rx="14.5" ry="14.5"></ellipse>
            <ellipse id="Oval-5" fill="#5CFFB4" opacity="0.262593284" cx="427" cy="234" rx="4" ry="4"></ellipse>
            <ellipse id="Oval-5" fill="#5CFFB4" opacity="0.262593284" cx="396.256757" cy="295.256757" rx="14.2567568" ry="14.2567568"></ellipse>
            <ellipse id="Oval-5" fill="#5CFFB4" opacity="0.262593284" cx="387" cy="278" rx="5" ry="5"></ellipse>
            <ellipse id="Oval-5" fill="#5CFFB4" opacity="0.262593284" cx="421.256757" cy="299.256757" rx="10.2567568" ry="10.2567568"></ellipse>
            <ellipse id="Oval-5" fill="#5CFFB4" opacity="0.262593284" cx="415" cy="281" rx="8" ry="8"></ellipse>
            <ellipse id="Oval-5" fill="#B45DFF" opacity="0.262593284" cx="388" cy="355" rx="6" ry="6"></ellipse>
            <ellipse id="Oval-5" fill="#B45DFF" opacity="0.262593284" cx="394" cy="337" rx="12" ry="12"></ellipse>
            <ellipse id="Oval-5" fill="#B45DFF" opacity="0.262593284" cx="411.5" cy="351.5" rx="9.5" ry="9.5"></ellipse>
            <ellipse id="Oval-5" fill="#B45DFF" opacity="0.262593284" cx="414" cy="333" rx="8" ry="8"></ellipse>
            <ellipse id="Oval-5" fill="#B45DFF" opacity="0.262593284" cx="435.5" cy="346.5" rx="14.5" ry="14.5"></ellipse>
            <ellipse id="Oval-5" fill="#B45DFF" opacity="0.262593284" cx="427" cy="329" rx="4" ry="4"></ellipse>
            <ellipse id="Oval-5" fill="#B45DFF" opacity="0.262593284" cx="396.256757" cy="390.256757" rx="14.2567568" ry="14.2567568"></ellipse>
            <ellipse id="Oval-5" fill="#B45DFF" opacity="0.262593284" cx="387" cy="373" rx="5" ry="5"></ellipse>
            <ellipse id="Oval-5" fill="#B45DFF" opacity="0.262593284" cx="421.256757" cy="394.256757" rx="10.2567568" ry="10.2567568"></ellipse>
            <ellipse id="Oval-5" fill="#B45DFF" opacity="0.262593284" cx="415" cy="376" rx="8" ry="8"></ellipse>
            <text id="👻" font-family="AppleColorEmoji, Apple Color Emoji" font-size="16" font-weight="normal" fill="#4A4A4A">
                <tspan x="360" y="64">👻</tspan>
            </text>
            <text id="🤖" font-family="AppleColorEmoji, Apple Color Emoji" font-size="16" font-weight="normal" fill="#4A4A4A">
                <tspan x="473" y="107">🤖</tspan>
            </text>
            <text id="👻" font-family="AppleColorEmoji, Apple Color Emoji" font-size="16" font-weight="normal" fill="#4A4A4A">
                <tspan x="473" y="64">👻</tspan>
            </text>
            <ellipse id="Oval-5" fill="#FF5D9D" opacity="0.262593284" cx="174" cy="196" rx="18" ry="18"></ellipse>
            <text id="🐹" font-family="AppleColorEmoji, Apple Color Emoji" font-size="16" font-weight="normal" fill="#4A4A4A">
                <tspan x="134" y="202">🐹</tspan>
            </text>
            <ellipse id="Oval-5" fill="#FF5D9D" opacity="0.262593284" cx="174" cy="153" rx="18" ry="18"></ellipse>
            <text id="🦁" font-family="AppleColorEmoji, Apple Color Emoji" font-size="16" font-weight="normal" fill="#4A4A4A">
                <tspan x="134" y="159">🦁</tspan>
            </text>
            <text id="🐹" font-family="AppleColorEmoji, Apple Color Emoji" font-size="16" font-weight="normal" fill="#4A4A4A">
                <tspan x="247" y="202">🐹</tspan>
            </text>
            <text id="🦁" font-family="AppleColorEmoji, Apple Color Emoji" font-size="16" font-weight="normal" fill="#4A4A4A">
                <tspan x="247" y="159">🦁</tspan>
            </text>
            <text id="🐹" font-family="AppleColorEmoji, Apple Color Emoji" font-size="16" font-weight="normal" fill="#4A4A4A">
                <tspan x="360" y="202">🐹</tspan>
            </text>
            <text id="🦁" font-family="AppleColorEmoji, Apple Color Emoji" font-size="16" font-weight="normal" fill="#4A4A4A">
                <tspan x="360" y="159">🦁</tspan>
            </text>
            <text id="🐹" font-family="AppleColorEmoji, Apple Color Emoji" font-size="16" font-weight="normal" fill="#4A4A4A">
                <tspan x="473" y="202">🐹</tspan>
            </text>
            <text id="🦁" font-family="AppleColorEmoji, Apple Color Emoji" font-size="16" font-weight="normal" fill="#4A4A4A">
                <tspan x="473" y="159">🦁</tspan>
            </text>
            <ellipse id="Oval-5" fill="#5CFFB4" opacity="0.262593284" cx="174" cy="291" rx="18" ry="18"></ellipse>
            <text id="🐼" font-family="AppleColorEmoji, Apple Color Emoji" font-size="16" font-weight="normal" fill="#4A4A4A">
                <tspan x="134" y="297">🐼</tspan>
            </text>
            <ellipse id="Oval-5" fill="#5CFFB4" opacity="0.262593284" cx="174" cy="248" rx="18" ry="18"></ellipse>
            <text id="🐷" font-family="AppleColorEmoji, Apple Color Emoji" font-size="16" font-weight="normal" fill="#4A4A4A">
                <tspan x="134" y="254">🐷</tspan>
            </text>
            <text id="🐼" font-family="AppleColorEmoji, Apple Color Emoji" font-size="16" font-weight="normal" fill="#4A4A4A">
                <tspan x="247" y="297">🐼</tspan>
            </text>
            <text id="🐷" font-family="AppleColorEmoji, Apple Color Emoji" font-size="16" font-weight="normal" fill="#4A4A4A">
                <tspan x="247" y="254">🐷</tspan>
            </text>
            <text id="🐼" font-family="AppleColorEmoji, Apple Color Emoji" font-size="16" font-weight="normal" fill="#4A4A4A">
                <tspan x="360" y="297">🐼</tspan>
            </text>
            <text id="🐷" font-family="AppleColorEmoji, Apple Color Emoji" font-size="16" font-weight="normal" fill="#4A4A4A">
                <tspan x="360" y="254">🐷</tspan>
            </text>
            <text id="🐼" font-family="AppleColorEmoji, Apple Color Emoji" font-size="16" font-weight="normal" fill="#4A4A4A">
                <tspan x="473" y="297">🐼</tspan>
            </text>
            <text id="🐷" font-family="AppleColorEmoji, Apple Color Emoji" font-size="16" font-weight="normal" fill="#4A4A4A">
                <tspan x="473" y="254">🐷</tspan>
            </text>
            <ellipse id="Oval-5" fill="#B45DFF" opacity="0.262593284" cx="174" cy="386" rx="18" ry="18"></ellipse>
            <text id="🐱" font-family="AppleColorEmoji, Apple Color Emoji" font-size="16" font-weight="normal" fill="#4A4A4A">
                <tspan x="134" y="392">🐱</tspan>
            </text>
            <ellipse id="Oval-5" fill="#B45DFF" opacity="0.262593284" cx="174" cy="343" rx="18" ry="18"></ellipse>
            <text id="🐸" font-family="AppleColorEmoji, Apple Color Emoji" font-size="16" font-weight="normal" fill="#4A4A4A">
                <tspan x="134" y="349">🐸</tspan>
            </text>
            <text id="🐱" font-family="AppleColorEmoji, Apple Color Emoji" font-size="16" font-weight="normal" fill="#4A4A4A">
                <tspan x="247" y="392">🐱</tspan>
            </text>
            <text id="🐸" font-family="AppleColorEmoji, Apple Color Emoji" font-size="16" font-weight="normal" fill="#4A4A4A">
                <tspan x="247" y="349">🐸</tspan>
            </text>
            <text id="🐱" font-family="AppleColorEmoji, Apple Color Emoji" font-size="16" font-weight="normal" fill="#4A4A4A">
                <tspan x="360" y="392">🐱</tspan>
            </text>
            <text id="🐸" font-family="AppleColorEmoji, Apple Color Emoji" font-size="16" font-weight="normal" fill="#4A4A4A">
                <tspan x="360" y="349">🐸</tspan>
            </text>
            <ellipse id="Oval-5" fill="#5CBAFF" opacity="0.262593284" cx="501" cy="70" rx="6" ry="6"></ellipse>
            <ellipse id="Oval-5" fill="#5CBAFF" opacity="0.262593284" cx="507" cy="52" rx="12" ry="12"></ellipse>
            <ellipse id="Oval-5" fill="#5CBAFF" opacity="0.26" cx="524.5" cy="66.5" rx="9.5" ry="9.5"></ellipse>
            <ellipse id="Oval-5" fill="#5CBAFF" opacity="0.262593284" cx="527" cy="48" rx="8" ry="8"></ellipse>
            <ellipse id="Oval-5" fill="#5CBAFF" opacity="0.1" cx="573.5" cy="61.5" rx="14.5" ry="14.5"></ellipse>
            <ellipse id="Oval-5" fill="#5CBAFF" opacity="0.1" cx="565" cy="44" rx="4" ry="4"></ellipse>
            <ellipse id="Oval-5" fill="#5CBAFF" opacity="0.262593284" cx="509.256757" cy="105.256757" rx="14.2567568" ry="14.2567568"></ellipse>
            <ellipse id="Oval-5" fill="#5CBAFF" opacity="0.262593284" cx="500" cy="88" rx="5" ry="5"></ellipse>
            <ellipse id="Oval-5" fill="#5CBAFF" opacity="0.1" cx="559.256757" cy="109.256757" rx="10.2567568" ry="10.2567568"></ellipse>
            <ellipse id="Oval-5" fill="#5CBAFF" opacity="0.1" cx="553" cy="91" rx="8" ry="8"></ellipse>
            <ellipse id="Oval-5" fill="#FF5D9D" opacity="0.262593284" cx="501" cy="165" rx="6" ry="6"></ellipse>
            <ellipse id="Oval-5" fill="#FF5D9D" opacity="0.262593284" cx="507" cy="147" rx="12" ry="12"></ellipse>
            <ellipse id="Oval-5" fill="#FF5D9D" opacity="0.262593284" cx="524.5" cy="161.5" rx="9.5" ry="9.5"></ellipse>
            <ellipse id="Oval-5" fill="#FF5D9D" opacity="0.262593284" cx="527" cy="143" rx="8" ry="8"></ellipse>
            <ellipse id="Oval-5" fill="#FF5D9D" opacity="0.262593284" cx="509.256757" cy="200.256757" rx="14.2567568" ry="14.2567568"></ellipse>
            <ellipse id="Oval-5" fill="#FF5D9D" opacity="0.262593284" cx="500" cy="183" rx="5" ry="5"></ellipse>
            <ellipse id="Oval-5" fill="#5CFFB4" opacity="0.262593284" cx="501" cy="260" rx="6" ry="6"></ellipse>
            <ellipse id="Oval-5" fill="#5CFFB4" opacity="0.262593284" cx="507" cy="242" rx="12" ry="12"></ellipse>
            <ellipse id="Oval-5" fill="#5CFFB4" opacity="0.262593284" cx="524.5" cy="256.5" rx="9.5" ry="9.5"></ellipse>
            <ellipse id="Oval-5" fill="#5CFFB4" opacity="0.262593284" cx="527" cy="238" rx="8" ry="8"></ellipse>
            <ellipse id="Oval-5" fill="#5CFFB4" opacity="0.262593284" cx="509.256757" cy="295.256757" rx="14.2567568" ry="14.2567568"></ellipse>
            <ellipse id="Oval-5" fill="#5CFFB4" opacity="0.262593284" cx="500" cy="278" rx="5" ry="5"></ellipse>
            <ellipse id="Oval-5" fill="#B45DFF" opacity="0.262593284" cx="501" cy="355" rx="6" ry="6"></ellipse>
            <ellipse id="Oval-5" fill="#B45DFF" opacity="0.262593284" cx="507" cy="337" rx="12" ry="12"></ellipse>
            <ellipse id="Oval-5" fill="#B45DFF" opacity="0.262593284" cx="524.5" cy="351.5" rx="9.5" ry="9.5"></ellipse>
            <ellipse id="Oval-5" fill="#B45DFF" opacity="0.262593284" cx="527" cy="333" rx="8" ry="8"></ellipse>
            <ellipse id="Oval-5" fill="#B45DFF" opacity="0.262593284" cx="509.256757" cy="390.256757" rx="14.2567568" ry="14.2567568"></ellipse>
            <ellipse id="Oval-5" fill="#B45DFF" opacity="0.262593284" cx="500" cy="373" rx="5" ry="5"></ellipse>
            <text id="🐱" font-family="AppleColorEmoji, Apple Color Emoji" font-size="16" font-weight="normal" fill="#4A4A4A">
                <tspan x="473" y="392">🐱</tspan>
            </text>
            <text id="🐸" font-family="AppleColorEmoji, Apple Color Emoji" font-size="16" font-weight="normal" fill="#4A4A4A">
                <tspan x="473" y="349">🐸</tspan>
            </text>
            <ellipse id="Oval-5" fill="#FF5D9D" opacity="0.1" cx="573.5" cy="156.5" rx="14.5" ry="14.5"></ellipse>
            <ellipse id="Oval-5" fill="#FF5D9D" opacity="0.1" cx="565" cy="139" rx="4" ry="4"></ellipse>
            <ellipse id="Oval-5" fill="#FF5D9D" opacity="0.1" cx="559.256757" cy="204.256757" rx="10.2567568" ry="10.2567568"></ellipse>
            <ellipse id="Oval-5" fill="#FF5D9D" opacity="0.1" cx="553" cy="186" rx="8" ry="8"></ellipse>
            <ellipse id="Oval-5" fill="#5CFFB4" opacity="0.1" cx="573.5" cy="251.5" rx="14.5" ry="14.5"></ellipse>
            <ellipse id="Oval-5" fill="#5CFFB4" opacity="0.1" cx="565" cy="234" rx="4" ry="4"></ellipse>
            <ellipse id="Oval-5" fill="#5CFFB4" opacity="0.1" cx="559.256757" cy="299.256757" rx="10.2567568" ry="10.2567568"></ellipse>
            <ellipse id="Oval-5" fill="#5CFFB4" opacity="0.1" cx="553" cy="281" rx="8" ry="8"></ellipse>
            <ellipse id="Oval-5" fill="#B45DFF" opacity="0.1" cx="573.5" cy="346.5" rx="14.5" ry="14.5"></ellipse>
            <ellipse id="Oval-5" fill="#B45DFF" opacity="0.1" cx="565" cy="329" rx="4" ry="4"></ellipse>
            <ellipse id="Oval-5" fill="#B45DFF" opacity="0.1" cx="559.256757" cy="394.256757" rx="10.2567568" ry="10.2567568"></ellipse>
            <ellipse id="Oval-5" fill="#B45DFF" opacity="0.1" cx="553" cy="376" rx="8" ry="8"></ellipse>
            <text id="User-Stories" font-family="HelveticaNeue-Light, Helvetica Neue" font-size="16" font-weight="300" fill="#818181">
                <tspan x="19.42" y="15">User Stories</tspan>
            </text>
            <text id="Assignment" font-family="HelveticaNeue-Light, Helvetica Neue" font-size="16" font-weight="300" fill="#818181">
                <tspan x="123.06" y="15">Assignment</tspan>
            </text>
            <text id="Subtasking" font-family="HelveticaNeue-Light, Helvetica Neue" font-size="16" font-weight="300" fill="#818181">
                <tspan x="246.98" y="15">Subtasking</tspan>
            </text>
            <text id="Estimation" font-family="HelveticaNeue-Light, Helvetica Neue" font-size="16" font-weight="300" fill="#818181">
                <tspan x="369.652" y="15">Estimation</tspan>
            </text>
            <text id="Commitment" font-family="HelveticaNeue-Light, Helvetica Neue" font-size="16" font-weight="300" fill="#818181">
                <tspan x="485.764" y="15">Commitment</tspan>
            </text>
            <path d="M561.189616,73.1937485 L584.692465,49.6909007" id="Path-1" stroke="#FF0000" opacity="0.1"></path>
            <path d="M550.188887,118.194477 L567.194653,101.188712" id="Path-1" stroke="#FF0000" opacity="0.1"></path>
            <path d="M546.690272,97.6930923 L559.717784,84.6655802" id="Path-1" stroke="#FF0000" opacity="0.1"></path>
            <path d="M561.183941,48.1994243 L569.197616,40.1857495" id="Path-1" stroke="#FF0000" opacity="0.1"></path>
            <path d="M561.189616,168.193748 L584.692465,144.690901" id="Path-1" stroke="#FF0000" opacity="0.1"></path>
            <path d="M550.188887,213.194477 L567.194653,196.188712" id="Path-1" stroke="#FF0000" opacity="0.1"></path>
            <path d="M546.690272,192.693092 L559.717784,179.66558" id="Path-1" stroke="#FF0000" opacity="0.1"></path>
            <path d="M561.183941,143.199424 L569.197616,135.185749" id="Path-1" stroke="#FF0000" opacity="0.1"></path>
            <path d="M561.189616,263.193748 L584.692465,239.690901" id="Path-1" stroke="#FF0000" opacity="0.1"></path>
            <path d="M550.188887,308.194477 L567.194653,291.188712" id="Path-1" stroke="#FF0000" opacity="0.1"></path>
            <path d="M546.690272,287.693092 L559.717784,274.66558" id="Path-1" stroke="#FF0000" opacity="0.1"></path>
            <path d="M561.183941,238.199424 L569.197616,230.185749" id="Path-1" stroke="#FF0000" opacity="0.1"></path>
            <path d="M561.189616,358.193748 L584.692465,334.690901" id="Path-1" stroke="#FF0000" opacity="0.1"></path>
            <path d="M550.188887,403.194477 L567.194653,386.188712" id="Path-1" stroke="#FF0000" opacity="0.1"></path>
            <path d="M546.690272,382.693092 L559.717784,369.66558" id="Path-1" stroke="#FF0000" opacity="0.1"></path>
            <path d="M561.183941,333.199424 L569.197616,325.185749" id="Path-1" stroke="#FF0000" opacity="0.1"></path>
            <path d="M61,221 C61,193.385763 61,171 61,171 C33.3857625,171 11,193.385763 11,221 C11,221 61,221 61,221 Z" id="Oval-1" fill="#5CBAFF" opacity="0.262593284"></path>
            <path d="M111,221 C111,193.385763 111,171 111,171 C83.3857625,171 61,193.385763 61,221 C61,221 111,221 111,221 Z" id="Oval-1" fill="#FF5D9D" opacity="0.262593284" transform="translate(86.000000, 196.000000) rotate(-270.000000) translate(-86.000000, -196.000000) "></path>
            <path d="M111,271 C111,243.385763 111,221 111,221 C83.3857625,221 61,243.385763 61,271 C61,271 111,271 111,271 Z" id="Oval-1" fill="#5CFFB4" opacity="0.262593284" transform="translate(86.000000, 246.000000) rotate(-180.000000) translate(-86.000000, -246.000000) "></path>
            <path d="M61,271 C61,243.385763 61,221 61,221 C33.3857625,221 11,243.385763 11,271 C11,271 61,271 61,271 Z" id="Oval-1" fill="#B45DFF" opacity="0.262593284" transform="translate(36.000000, 246.000000) rotate(-90.000000) translate(-36.000000, -246.000000) "></path>
            <text id="Product" font-family="HelveticaNeue-Light, Helvetica Neue" font-size="14" font-weight="300" fill="#818181">
                <tspan x="3.637" y="205">Product</tspan>
            </text>
            <text id="Design" font-family="HelveticaNeue-Light, Helvetica Neue" font-size="14" font-weight="300" fill="#818181">
                <tspan x="70.259" y="205">Design</tspan>
            </text>
            <text id="Dev" font-family="HelveticaNeue-Light, Helvetica Neue" font-size="14" font-weight="300" fill="#818181">
                <tspan x="69.831" y="246">Dev</tspan>
            </text>
            <text id="QA" font-family="HelveticaNeue-Light, Helvetica Neue" font-size="14" font-weight="300" fill="#818181">
                <tspan x="31.403" y="246">QA</tspan>
            </text>
        </g>
    </g>
</svg>